<svg width="24" height="25" viewBox="0 0 24 25" fill="none" xmlns="http://www.w3.org/2000/svg">
<path fill-rule="evenodd" clip-rule="evenodd" d="M12 22.6299C7.28595 22.6299 4.92893 22.6299 3.46447 21.1654C2 19.701 2 17.3439 2 12.6299C2 7.91583 2 5.55881 3.46447 4.09435C4.92893 2.62988 7.28595 2.62988 12 2.62988C16.714 2.62988 19.0711 2.62988 20.5355 4.09435C22 5.55881 22 7.91583 22 12.6299C22 17.3439 22 19.701 20.5355 21.1654C19.0711 22.6299 16.714 22.6299 12 22.6299ZM16.0303 9.59955C16.3232 9.89244 16.3232 10.3673 16.0303 10.6602L11.0303 15.6602C10.7374 15.9531 10.2626 15.9531 9.96967 15.6602L7.96967 13.6602C7.67678 13.3673 7.67678 12.8925 7.96967 12.5996C8.26256 12.3067 8.73744 12.3067 9.03033 12.5996L10.5 14.0692L14.9697 9.59955C15.2626 9.30666 15.7374 9.30666 16.0303 9.59955Z" fill="#285772"/>
</svg>
