<svg width="24" height="23" viewBox="0 0 24 23" fill="none" xmlns="http://www.w3.org/2000/svg">
<path d="M3.92124 14.5594C3.13427 13.5779 2.74078 13.0872 2.74078 11.6299C2.74078 10.1727 3.13427 9.68194 3.92124 8.70043C5.4926 6.74063 8.12792 4.5188 12 4.5188C15.8722 4.5188 18.5074 6.74063 20.0788 8.70043C20.8658 9.68194 21.2593 10.1727 21.2593 11.6299C21.2593 13.0872 20.8658 13.5779 20.0788 14.5594C18.5074 16.5192 15.8722 18.741 12 18.741C8.12792 18.741 5.4926 16.5192 3.92124 14.5594Z" stroke="#828386" stroke-width="1.2" stroke-linecap="round" stroke-linejoin="round"/>
<path d="M14.7778 11.6298C14.7778 13.1026 13.5342 14.2965 12 14.2965C10.4658 14.2965 9.22223 13.1026 9.22223 11.6298C9.22223 10.157 10.4658 8.96313 12 8.96313C13.5342 8.96313 14.7778 10.157 14.7778 11.6298Z" stroke="#828386" stroke-width="1.2" stroke-linecap="round" stroke-linejoin="round"/>
</svg>
