<?xml version="1.0" standalone="no"?>
<!DOCTYPE svg PUBLIC "-//W3C//DTD SVG 20010904//EN"
 "http://www.w3.org/TR/2001/REC-SVG-20010904/DTD/svg10.dtd">
<svg version="1.0" xmlns="http://www.w3.org/2000/svg"
 width="2500.000000pt" height="2500.000000pt" viewBox="0 0 2500.000000 2500.000000"
 preserveAspectRatio="xMidYMid meet">

<g transform="translate(0.000000,2500.000000) scale(0.100000,-0.100000)"
fill="#000000" stroke="none">
<path d="M13280 21383 c-1128 -22 -2311 -269 -3450 -720 -813 -322 -1687 -790
-2430 -1299 -247 -170 -269 -185 -480 -342 -601 -446 -1089 -870 -1650 -1432
-621 -621 -1100 -1185 -1641 -1932 -105 -145 -303 -441 -473 -706 -261 -407
-617 -1066 -839 -1552 -838 -1839 -1082 -3590 -692 -4975 256 -910 835 -1747
1715 -2480 1186 -988 2828 -1690 4450 -1904 1013 -134 1974 -69 2835 190 600
181 1138 425 2175 984 1393 752 2139 1054 3205 1299 753 172 1749 262 2612
236 415 -13 633 -31 1373 -111 239 -26 610 -36 750 -20 229 26 396 76 605 180
561 277 1051 812 1403 1528 741 1510 866 3807 322 5918 -374 1449 -1011 2656
-1978 3750 -166 187 -609 627 -804 797 -1692 1478 -3887 2397 -6131 2568 -132
10 -706 32 -737 28 -8 -1 -71 -3 -140 -5z m3440 -8573 l0 -4960 -3621 0 -3622
0 -66 -49 c-79 -59 -190 -172 -254 -259 -25 -34 -78 -120 -118 -190 -100 -175
-142 -235 -211 -302 -119 -116 -215 -146 -518 -162 -227 -11 -775 -5 -910 12
-325 39 -563 103 -785 210 -55 27 -202 114 -328 193 -125 80 -232 147 -238
149 -6 2 24 60 66 128 291 473 395 750 440 1168 9 81 19 333 25 615 10 487 19
689 46 1017 57 690 197 1553 311 1913 50 159 101 272 286 637 96 191 183 377
210 452 70 192 190 575 263 836 71 254 115 369 189 488 135 216 304 369 530
479 158 77 304 116 488 131 77 6 93 11 130 38 56 43 160 107 225 140 l52 26 0
1125 0 1125 3705 0 3705 0 0 -4960z"/>
<path d="M11550 16697 l0 -113 100 1 c56 0 104 -2 108 -5 4 -3 8 -167 7 -365
l0 -360 153 -3 152 -3 0 365 c0 282 3 365 13 368 6 2 56 4 110 3 l97 -1 0 113
0 113 -370 0 -370 0 0 -113z"/>
<path d="M13953 16633 c-98 -108 -159 -183 -161 -198 -3 -25 -2 -25 67 -25
l69 0 4 -192 c3 -189 4 -194 31 -246 63 -120 210 -166 412 -131 89 15 87 13
79 113 -6 83 -8 87 -28 81 -57 -16 -123 -17 -154 -1 -43 22 -52 62 -52 234 l0
142 99 0 98 0 7 69 c3 38 9 76 12 85 5 14 -8 16 -105 16 l-111 0 0 113 0 112
-54 0 -54 0 -159 -172z"/>
<path d="M12486 16585 c-135 -35 -255 -131 -295 -240 -27 -73 -28 -172 -1
-256 40 -128 131 -206 283 -246 78 -20 261 -13 357 14 l65 18 3 98 c3 91 1 98
-15 93 -10 -3 -45 -13 -78 -22 -36 -11 -95 -18 -147 -18 -72 -1 -91 2 -114 20
-33 24 -60 60 -69 92 -6 22 -5 22 87 22 184 1 291 42 336 130 59 117 1 236
-138 285 -64 23 -202 28 -274 10z m205 -180 c70 -64 -8 -128 -166 -137 -46 -2
-50 0 -53 21 -7 50 38 113 94 131 40 13 102 5 125 -15z"/>
<path d="M13238 16582 c-117 -31 -177 -98 -178 -200 0 -62 23 -112 72 -158 45
-43 98 -68 209 -99 98 -28 119 -38 119 -61 0 -45 -158 -51 -280 -11 -41 13
-83 28 -93 32 -16 7 -18 0 -15 -101 l3 -109 70 -18 c40 -11 123 -21 196 -24
110 -5 136 -3 196 15 138 42 199 134 175 264 -20 108 -88 163 -257 208 -115
31 -149 58 -111 89 33 27 169 13 274 -28 l52 -21 1 38 c0 20 3 65 5 99 6 71
14 65 -118 86 -126 20 -241 20 -320 -1z"/>
<path d="M13305 13179 c-11 -32 -65 -88 -107 -110 -77 -39 -103 -36 -370 40
-294 84 -324 85 -463 20 -101 -48 -224 -83 -342 -99 l-93 -13 65 -22 c81 -29
150 -77 195 -138 33 -45 37 -47 75 -42 44 5 108 11 230 20 44 4 89 8 100 10
11 2 108 46 215 97 144 70 201 93 215 87 60 -23 189 8 235 56 29 31 40 32 40
3 0 -43 71 -168 83 -147 1 2 13 26 26 52 27 53 69 82 106 73 13 -3 26 -14 30
-25 9 -29 41 -53 62 -47 10 3 36 22 57 41 81 72 171 24 132 -70 l-15 -36 47
40 c64 54 93 64 169 55 70 -7 79 -14 63 -45 -15 -27 -9 -32 43 -32 116 0 220
27 327 84 46 24 59 36 55 49 -3 9 1 23 9 29 12 10 16 3 25 -39 6 -28 11 -60
11 -70 0 -11 6 -20 13 -20 29 1 160 60 214 97 32 22 66 42 75 46 28 10 63 -28
87 -92 29 -81 81 -120 81 -61 0 93 101 139 161 73 l25 -29 26 28 c31 34 65 36
127 8 70 -32 131 -23 131 19 0 12 -3 11 -18 -2 -25 -23 -64 -21 -112 3 -49 25
-86 25 -125 2 -29 -18 -31 -18 -57 1 -30 22 -95 25 -126 6 -25 -16 -52 -61
-52 -89 0 -35 -18 -13 -41 50 -11 32 -31 67 -43 78 -40 37 -57 35 -141 -18
-70 -44 -169 -90 -194 -90 -5 0 -14 27 -20 61 -7 35 -18 62 -27 66 -19 7 -52
-23 -56 -51 -4 -28 -110 -81 -203 -101 -67 -14 -175 -26 -175 -19 0 16 26 54
37 54 22 0 73 56 73 79 0 31 -21 37 -42 10 -61 -76 -63 -77 -110 -68 -75 14
-121 10 -165 -16 l-43 -24 -6 24 c-9 37 -49 68 -88 68 -25 0 -46 -11 -86 -44
l-52 -44 -19 25 c-35 46 -39 50 -63 56 -42 10 -93 -20 -119 -71 l-23 -47 -17
26 c-30 45 -39 79 -38 144 0 65 -3 76 -14 41z m841 -117 c-17 -16 -18 -16 -5
5 7 12 15 20 18 17 3 -2 -3 -12 -13 -22z"/>
<path d="M10975 13040 c-231 -21 -458 -41 -505 -45 -47 -3 -103 -8 -125 -11
-43 -4 -451 -41 -1115 -99 -223 -20 -419 -40 -436 -46 -32 -10 -74 -48 -93
-86 -19 -38 -14 -116 12 -154 38 -57 81 -79 152 -79 49 0 714 55 895 74 25 3
79 8 120 11 41 3 91 8 110 10 19 2 64 7 100 10 36 3 197 16 359 30 162 14 307
25 321 25 19 0 52 21 106 66 181 151 425 259 634 281 33 3 60 9 60 12 0 4 -34
13 -77 20 -42 7 -81 14 -87 16 -6 1 -200 -14 -431 -35z"/>
</g>
</svg>
